<?xml version="1.0" standalone="no"?>
<!DOCTYPE svg PUBLIC "-//W3C//DTD SVG 1.1//EN" "http://www.w3.org/Graphics/SVG/1.1/DTD/svg11.dtd" >
<svg xmlns="http://www.w3.org/2000/svg">
<metadata>
This is a custom SVG webfont generated by Font Squirrel.
Copyright   : Copyright c 2006 by typetogether All rights reserved
Designer    : Veronika Burian Jose Scaglione
Foundry     : TypeTogether
Foundry URL : wwwtypetogethercom
</metadata>
<defs>
<font id="RonniaBasicBoldItalic" horiz-adv-x="1126" >
<font-face units-per-em="2048" ascent="1546" descent="-502" />
<missing-glyph horiz-adv-x="450" />
<glyph unicode=" "  horiz-adv-x="450" />
<glyph unicode="&#x09;" horiz-adv-x="450" />
<glyph unicode="&#xa0;" horiz-adv-x="450" />
<glyph unicode="!" horiz-adv-x="546" d="M39 123q0 74 49 128t131 54q66 0 101.5 -40t35.5 -99q0 -78 -48 -131t-136 -53q-61 0 -97 40t-36 101zM117 436l125 1037h327l-196 -1037h-256z" />
<glyph unicode="&#x22;" horiz-adv-x="802" d="M162 946l53 527h258l-113 -527h-198zM561 946l53 527h258l-112 -527h-199z" />
<glyph unicode="#" horiz-adv-x="1427" d="M18 369l109 209h217l100 221h-219l103 215h221l158 346h231l-158 -346h203l160 346h231l-157 -346h231l-105 -215h-231l-100 -221h237l-108 -209h-234l-164 -369h-237l168 369h-199l-166 -369h-235l166 369h-222zM578 578h200l105 221h-205z" />
<glyph unicode="$" d="M2 115l143 260q178 -121 355 -121q209 0 209 139q0 55 -43 98.5t-106.5 69t-139.5 62t-139.5 77.5t-106.5 115t-43 172q0 184 120 298t316 136l29 183h283l-31 -201q166 -45 285 -164l-177 -209q-147 127 -299 127q-186 0 -186 -135q0 -59 57.5 -103.5t140.5 -79 t166 -78.5t140 -128t57 -201q0 -172 -103.5 -284.5t-283.5 -149.5l-31 -205h-280l31 199q-111 10 -214.5 49t-148.5 74z" />
<glyph unicode="%" horiz-adv-x="1927" d="M117 932q0 217 109.5 379t316.5 162q141 0 221 -82t80 -238q0 -129 -40 -249t-141.5 -210t-244.5 -90q-135 0 -218 89t-83 239zM365 930q0 -135 73 -135q43 0 77 39.5t50.5 100t23.5 118t7 106.5q0 125 -73.5 125t-115.5 -112.5t-42 -241.5zM455 0l762 1473h278 l-766 -1473h-274zM1106 299q0 217 109.5 379t316.5 162q141 0 221 -83t80 -237q0 -129 -40 -248.5t-141.5 -210t-244.5 -90.5q-133 0 -217 89t-84 239zM1354 295q0 -135 73 -135q43 0 77 40t50.5 101t23.5 117.5t7 105.5q0 127 -73.5 127t-115.5 -113.5t-42 -242.5z" />
<glyph unicode="&#x26;" horiz-adv-x="1357" d="M88 356q0 156 90 260.5t232 159.5q-88 37 -141.5 116t-53.5 177q0 190 151.5 297t358.5 107q250 0 455 -156l-133 -209q-166 113 -312 113q-92 0 -151.5 -43t-59.5 -123q0 -86 65.5 -127t170.5 -41q197 0 530 57l21 -211l-125 -18q-33 -735 -651 -735q-205 0 -326 102 t-121 274zM408 387q0 -72 44 -118t134 -46q143 0 232 118t97 351q-96 -4 -179 -20.5t-160.5 -49t-122.5 -93t-45 -142.5z" />
<glyph unicode="'" horiz-adv-x="403" d="M162 946l53 527h258l-113 -527h-198z" />
<glyph unicode="(" horiz-adv-x="704" d="M117 449q0 311 109.5 602.5t316.5 601.5l260 -121q-180 -293 -279.5 -542t-99.5 -523q0 -264 129 -614l-281 -129q-155 360 -155 725z" />
<glyph unicode=")" horiz-adv-x="704" d="M-82 -170q180 293 279.5 542t99.5 523q0 264 -129 614l281 129q156 -360 155 -725q0 -311 -109.5 -603t-316.5 -601z" />
<glyph unicode="*" horiz-adv-x="878" d="M127 1266q0 49 34 83.5t87 34.5q41 0 86 -32l129 -92l-55 -117l-181 24q-47 6 -73.5 34t-26.5 65zM182 874q0 63 70 115l158 117l90 -72l-78 -153q-53 -104 -127 -105q-43 0 -78 28.5t-35 69.5zM489 1473q-6 143 125 143q45 0 70 -23.5t25 -60.5q0 -35 -17 -74l-71 -170 h-121zM541 1036l110 70l115 -129q45 -45 45 -90q0 -49 -38 -84t-89 -35q-94 0 -113 106zM649 1260l162 96q47 31 94 30q39 0 65.5 -28.5t26.5 -71.5q0 -104 -141 -121l-186 -24z" />
<glyph unicode="+" d="M74 510l41 254h356l57 360h260l-55 -360h352l-41 -254h-352l-57 -375h-262l57 375h-356z" />
<glyph unicode="," horiz-adv-x="559" d="M-29 -336l115 524q18 84 53 118t101 34q63 0 105 -34t42 -87q0 -41 -33 -110l-235 -480z" />
<glyph unicode="-" horiz-adv-x="833" d="M106 504l37 237h617l-37 -237h-617z" />
<glyph unicode="." horiz-adv-x="577" d="M61 127q0 86 54.5 143.5t140.5 57.5q70 0 108.5 -40t38.5 -108q0 -86 -54 -143t-140 -57q-72 0 -110 38.5t-38 108.5z" />
<glyph unicode="/" horiz-adv-x="925" d="M-109 -111l926 1727l250 -88l-932 -1733z" />
<glyph unicode="0" horiz-adv-x="1142" d="M61 469q0 133 18.5 261t67 257t120 225.5t187 157t261.5 60.5q408 0 407 -494q0 -168 -31.5 -324.5t-100 -304t-198.5 -237.5t-309 -90q-422 0 -422 489zM371 457q0 -125 34.5 -182.5t108.5 -57.5q80 0 142.5 79t95 199.5t48 235.5t15.5 213q0 129 -35 184.5t-108 55.5 q-88 0 -159 -108.5t-106.5 -273.5t-35.5 -345z" />
<glyph unicode="1" horiz-adv-x="944" d="M18 0l35 223h232l151 955h-211l35 225h524l-186 -1180h229l-32 -223h-777z" />
<glyph unicode="2" horiz-adv-x="1122" d="M-20 0l28 184q213 176 320.5 273.5t242.5 247.5q174 186 174 331q0 66 -35.5 102t-99.5 36q-127 0 -245 -179l-230 129q104 158 231.5 232t311.5 74q174 0 284.5 -96.5t110.5 -254.5q0 -227 -213 -456q-141 -154 -430 -396h537l-35 -227h-952z" />
<glyph unicode="3" horiz-adv-x="1085" d="M-53 119l153 235q59 -55 144.5 -86.5t156.5 -31.5q100 0 171 56t71 157q0 141 -137 167q-57 12 -195 13l35 209q139 0 180 6q82 10 139.5 60t57.5 130q0 70 -42 106t-110 36q-131 0 -249 -144l-197 146q176 252 502 252q182 0 291.5 -88.5t109.5 -245.5 q0 -106 -68.5 -200.5t-191.5 -158.5q90 -29 145.5 -103.5t55.5 -180.5q0 -213 -163 -343t-425 -130q-254 0 -434 139z" />
<glyph unicode="4" horiz-adv-x="1196" d="M31 330l28 168l689 905h342l-136 -854h174l-36 -225h-174l-52 -324h-307l51 330h-579zM332 549h313l103 549l-13 2z" />
<glyph unicode="5" horiz-adv-x="1150" d="M-4 119l154 241q152 -125 311 -124q127 0 200.5 83.5t73.5 210.5q0 98 -44 149.5t-116 51.5q-100 0 -217 -98l-221 74l111 696h852l-39 -238h-598l-53 -293l8 -4q133 98 297 98.5t250 -106t86 -272.5q0 -268 -163 -438t-442 -170q-270 0 -450 139z" />
<glyph unicode="6" horiz-adv-x="1189" d="M104 469q0 129 24 259t79 258t135 225.5t203 158t272 60.5q250 0 371 -199l-199 -162q-74 129 -205 129q-109 0 -190.5 -92t-122.5 -248q129 88 287 88q172 0 257 -100.5t85 -261.5q0 -254 -152.5 -429t-415.5 -175q-219 0 -323.5 128t-104.5 361zM397 428 q0 -223 158 -223q115 0 177.5 102.5t62.5 237.5q0 182 -154 182q-123 0 -213 -74q-31 -133 -31 -225z" />
<glyph unicode="7" horiz-adv-x="1044" d="M106 1145l37 241h979l-30 -186l-555 -794q-70 -98 -86 -205l-31 -201h-305l32 207q25 152 93 250l479 688h-613z" />
<glyph unicode="8" horiz-adv-x="1163" d="M61 356q0 123 63.5 226.5t176.5 169.5q-96 96 -96 241q0 197 144.5 317t359.5 120q201 0 308 -90.5t107 -243.5q0 -205 -192 -361q141 -80 141 -256q0 -238 -152.5 -368.5t-408.5 -130.5q-221 0 -336 103t-115 273zM377 383q0 -86 42 -134t120 -48q106 0 164.5 76.5 t58.5 185.5q0 150 -152 164l-127 12q-106 -100 -106 -256zM508 989q0 -143 108 -153l113 -11q92 102 92 248q0 66 -34.5 103.5t-96.5 37.5q-86 0 -134 -66.5t-48 -158.5z" />
<glyph unicode="9" horiz-adv-x="1191" d="M51 125l150 205q113 -113 276 -113q217 0 283 338q-115 -94 -279 -94q-170 0 -259 112.5t-89 282.5q0 246 152.5 410t406.5 164q223 0 330.5 -135.5t107.5 -374.5q0 -137 -18 -262.5t-66.5 -252t-122 -219t-191.5 -149.5t-269 -57q-137 0 -247 44t-165 101zM444 872 q0 -197 152 -196q121 0 207 78q27 123 26 231q0 219 -159 219q-111 0 -168.5 -97.5t-57.5 -234.5z" />
<glyph unicode=":" horiz-adv-x="579" d="M84 127q0 86 54.5 143.5t140.5 57.5q70 0 108.5 -40t38.5 -108q0 -86 -54.5 -143t-140.5 -57q-72 0 -109.5 38.5t-37.5 108.5zM190 897q0 86 54.5 143.5t140.5 57.5q70 0 108.5 -40t38.5 -108q0 -86 -54 -143t-140 -57q-72 0 -110 38.5t-38 108.5z" />
<glyph unicode=";" horiz-adv-x="612" d="M-29 -336l115 524q18 84 53 118t101 34q63 0 105 -34t42 -87q0 -41 -33 -110l-235 -480zM223 897q0 86 54.5 143.5t140.5 57.5q70 0 108.5 -40t38.5 -108q0 -86 -54 -143t-140 -57q-72 0 -110 38.5t-38 108.5z" />
<glyph unicode="&#x3c;" d="M102 553l31 186l916 377l81 -227l-612 -248l514 -250l-127 -241z" />
<glyph unicode="=" d="M41 285l41 254h973l-41 -254h-973zM106 721l41 254h971l-39 -254h-973z" />
<glyph unicode="&#x3e;" d="M43 387l619 252l-515 250l125 227l803 -403l-31 -187l-915 -376z" />
<glyph unicode="?" horiz-adv-x="915" d="M80 123q0 74 50 128t132 54q66 0 101.5 -40t35.5 -99q0 -78 -48 -131t-136 -53q-63 0 -99 40t-36 101zM127 434l63 402q78 2 144.5 15t129 40t98.5 76t36 116q0 152 -182 152q-90 0 -203 -27l-14 232q139 35 299 35q201 0 309 -95.5t108 -255.5q0 -354 -444 -462 l-37 -228h-307z" />
<glyph unicode="@" horiz-adv-x="1607" d="M57 283q0 418 269.5 656.5t697.5 238.5q303 0 520 -113l-160 -1016q-182 -61 -378 -61q-213 0 -315.5 90t-102.5 256q0 176 125 282.5t319 106.5q76 0 160 -25l31 199q-94 37 -222 37q-285 0 -460.5 -169t-175.5 -460q0 -231 129 -374.5t383 -143.5q193 0 350 55l37 -233 q-190 -63 -433 -64q-195 0 -347 60.5t-243 164t-137.5 233.5t-46.5 280zM874 346q0 -72 43.5 -110.5t112.5 -38.5q47 0 84 10l49 315q-57 12 -96 13q-88 0 -140.5 -49.5t-52.5 -139.5z" />
<glyph unicode="A" horiz-adv-x="1286" d="M-78 0l651 1473h398l227 -1473h-321l-48 348h-428l-151 -348h-328zM487 573h316l-60 631h-8z" />
<glyph unicode="B" horiz-adv-x="1263" d="M66 0l231 1473h498q203 0 311 -85t108 -231q0 -197 -227 -377q98 -49 147.5 -118.5t49.5 -182.5q0 -231 -167 -352t-437 -127h-514zM420 227h166q115 0 188.5 69t73.5 171q0 86 -49 135t-142 49h-170zM520 860h205q70 43 116 106.5t46 133.5q0 141 -172 141h-135z" />
<glyph unicode="C" horiz-adv-x="1222" d="M96 575q0 172 43 332t129 296t233.5 218t336.5 82q442 0 446 -428l-297 -67q-10 246 -184 245q-96 0 -171 -65.5t-115 -170t-59.5 -211t-19.5 -208.5q0 -172 66.5 -266t200.5 -94q164 0 358 102l20 -266q-205 -102 -465 -103q-143 0 -247.5 48.5t-162.5 134.5t-85 190 t-27 231z" />
<glyph unicode="D" horiz-adv-x="1345" d="M66 0l231 1473h485q242 0 383.5 -129.5t141.5 -407.5q0 -416 -208 -676t-542 -260h-491zM422 233h113q137 0 238 99.5t147.5 251t46.5 329.5q0 324 -242 324h-143z" />
<glyph unicode="E" horiz-adv-x="1153" d="M66 0l231 1473h911l-37 -246h-591l-56 -353h512l-37 -245h-514l-61 -381h614l-37 -248h-935z" />
<glyph unicode="F" horiz-adv-x="1134" d="M66 0l231 1473h942l-37 -248h-622l-58 -353h520l-36 -245h-521l-100 -627h-319z" />
<glyph unicode="G" horiz-adv-x="1318" d="M96 580q0 162 40 316.5t121 294.5t227.5 226t338.5 86q428 0 457 -409l-293 -68q-12 117 -54 172t-142 55q-94 0 -168 -67.5t-114 -172t-59.5 -213t-19.5 -208.5q0 -375 262 -375q88 0 164 29l45 284h-227l37 234h538l-104 -692q-227 -100 -504 -101q-545 1 -545 609z " />
<glyph unicode="H" horiz-adv-x="1439" d="M66 0l231 1473h319l-92 -594h486l94 594h319l-231 -1473h-320l97 623h-486l-98 -623h-319z" />
<glyph unicode="I" horiz-adv-x="634" d="M66 0l231 1473h319l-231 -1473h-319z" />
<glyph unicode="J" horiz-adv-x="899" d="M-63 51l96 258q119 -57 207 -57q80 0 117.5 47t54.5 145l161 1029h320l-162 -1041q-37 -242 -147.5 -350.5t-323.5 -108.5q-184 0 -323 78z" />
<glyph unicode="K" horiz-adv-x="1327" d="M66 0l233 1473h315l-96 -605h113l407 605h332l-483 -711l143 -412q41 -117 174 -117q10 0 39 5l-33 -236q-72 -20 -151 -20q-121 0 -193.5 59t-120.5 188l-139 392h-127l-98 -621h-315z" />
<glyph unicode="L" horiz-adv-x="1107" d="M66 0l231 1473h319l-192 -1225h592l-39 -248h-911z" />
<glyph unicode="M" horiz-adv-x="1673" d="M8 0l322 1473h342l162 -981l450 981h350l-131 -1473h-295l84 942h-8l-375 -805h-245l-152 807h-6l-199 -944h-299z" />
<glyph unicode="N" horiz-adv-x="1435" d="M66 0l233 1473h297l356 -945l11 2l149 943h307l-233 -1473h-281l-375 946l-10 -2l-141 -944h-313z" />
<glyph unicode="O" horiz-adv-x="1402" d="M94 541q0 143 25.5 277t84 260t144.5 219.5t216 149.5t290 56q244 0 373 -138t129 -394q0 -147 -25.5 -285.5t-83 -269.5t-143.5 -228.5t-216 -157t-290 -59.5q-231 0 -367.5 141.5t-136.5 428.5zM430 549q0 -324 209 -324q96 0 172 70t119 180.5t65.5 232t22.5 240.5 q0 297 -207 297q-106 0 -186 -72.5t-119 -187.5t-57.5 -224.5t-18.5 -211.5z" />
<glyph unicode="P" horiz-adv-x="1236" d="M66 0l231 1473h512q213 0 332 -108t119 -294q0 -260 -167 -403.5t-450 -153.5h-176l-82 -514h-319zM504 752h131q133 0 213 77.5t80 210.5q0 197 -193 197h-153z" />
<glyph unicode="Q" horiz-adv-x="1394" d="M90 541q0 143 25.5 277t85 260t145.5 219.5t216 149.5t290 56q244 0 373 -138t129 -394q0 -154 -30 -300.5t-89 -280.5t-163.5 -235.5t-242.5 -146.5q29 -94 125.5 -156.5t249.5 -70.5l-74 -240q-233 8 -397 131t-215 305q-197 23 -312.5 164.5t-115.5 399.5zM428 549 q0 -324 207 -324q127 0 217 122t126 279.5t36 321.5q0 297 -207 297q-106 0 -185 -72.5t-119 -187.5t-57.5 -224.5t-17.5 -211.5z" />
<glyph unicode="R" horiz-adv-x="1341" d="M66 0l231 1473h506q217 0 347 -96.5t130 -284.5q0 -303 -313 -433l59 -286q16 -76 50 -108t104 -32q25 0 37 3l-31 -236q-72 -20 -144 -20q-244 0 -307 270l-76 338h-182l-92 -588h-319zM516 827h184q111 0 179.5 62.5t68.5 177.5q0 170 -196 170h-170z" />
<glyph unicode="S" horiz-adv-x="1138" d="M16 100l144 260q178 -121 354 -120q88 0 148.5 46t60.5 132q0 68 -42 117t-105.5 76.5t-136 65.5t-136 79t-105.5 118.5t-42 184.5q0 207 148.5 327.5t377.5 120.5q291 0 475 -188l-176 -209q-147 127 -299 127q-76 0 -133 -35t-57 -108q0 -66 57 -114t139 -86t163 -85 t138.5 -136t57.5 -216q0 -229 -152 -358.5t-410 -129.5q-147 0 -278.5 43t-190.5 88z" />
<glyph unicode="T" horiz-adv-x="1179" d="M117 1227l37 246h1149l-37 -246h-416l-195 -1227h-319l194 1227h-413z" />
<glyph unicode="U" horiz-adv-x="1370" d="M119 371q0 70 14 159l148 943h321l-145 -912q-12 -90 -13 -139q0 -182 191 -182q76 0 127 23.5t78.5 77.5t40 101t26.5 131l144 900h319l-153 -955q-43 -272 -177.5 -406.5t-439.5 -134.5q-481 1 -481 394z" />
<glyph unicode="V" horiz-adv-x="1280" d="M147 1473h322l133 -1125h6l467 1125h324l-666 -1473h-364z" />
<glyph unicode="W" horiz-adv-x="1730" d="M180 1473h295l-16 -996h14l381 862h250l100 -882l13 -2l292 1018h301l-464 -1473h-310l-116 930h-9l-401 -930h-313z" />
<glyph unicode="X" horiz-adv-x="1286" d="M-98 0l565 758l-307 715h329l187 -488l362 488h353l-570 -758l144 -330q33 -74 73.5 -110.5t112.5 -36.5q12 0 53 4l-35 -244q-78 -18 -163 -18q-106 0 -174 58t-123 181l-107 242l-330 -461h-370z" />
<glyph unicode="Y" horiz-adv-x="1261" d="M127 1473h338l194 -633h11l385 633h346l-613 -938l-83 -535h-320l88 559z" />
<glyph unicode="Z" horiz-adv-x="1187" d="M-41 0l31 195l856 1040h-658l37 238h1051l-33 -213l-848 -1018h664l-37 -242h-1063z" />
<glyph unicode="[" horiz-adv-x="733" d="M14 -283l305 1917h537l-31 -194h-243l-242 -1528h242l-31 -195h-537z" />
<glyph unicode="\" horiz-adv-x="1081" d="M102 1563l267 88l651 -1727l-258 -94z" />
<glyph unicode="]" horiz-adv-x="706" d="M-123 -283l31 195h244l241 1528h-241l30 194h537l-305 -1917h-537z" />
<glyph unicode="^" horiz-adv-x="1196" d="M102 633l496 782h211l254 -797l-260 -40l-146 491l-299 -491z" />
<glyph unicode="_" horiz-adv-x="1024" d="M-137 -385l33 213h1050l-33 -213h-1050z" />
<glyph unicode="`" horiz-adv-x="1024" d="M256 1430l127 196l385 -276l-100 -152z" />
<glyph unicode="a" horiz-adv-x="1212" d="M66 412q0 168 52 323.5t171 268t280 112.5q150 0 246 -88l27 70h266l-127 -809q-3 -17 -3 -31q0 -59 50 -59q23 0 88 16l-29 -205q-94 -33 -186 -33q-158 0 -209 121q-135 -119 -299 -118q-156 0 -241.5 110.5t-85.5 321.5zM387 434q0 -211 131 -211q76 0 146 51l90 557 q-61 51 -129 52q-66 0 -115 -49.5t-74.5 -124t-37 -144.5t-11.5 -131z" />
<glyph unicode="b" horiz-adv-x="1146" d="M41 66l225 1407h309l-69 -437q137 80 287 80q141 0 212.5 -103.5t71.5 -285.5q0 -150 -36.5 -281t-112.5 -237.5t-203 -169t-293 -62.5q-231 1 -391 89zM381 246q35 -25 108 -25q72 0 128.5 46t88 120t47 150.5t15.5 150.5q0 182 -125 182q-86 0 -170 -53z" />
<glyph unicode="c" horiz-adv-x="978" d="M61 430q0 131 34 250t99.5 218t177 158.5t255.5 59.5q174 0 261 -94t99 -238l-260 -61q-10 70 -37.5 108.5t-89.5 38.5q-80 0 -132 -72.5t-68.5 -154.5t-16.5 -166q0 -248 197 -248q131 0 286 74l-37 -264q-156 -63 -335 -64q-225 0 -329 128t-104 327z" />
<glyph unicode="d" horiz-adv-x="1146" d="M61 406q0 129 32 250.5t93.5 227t165 169t234.5 63.5q125 0 202 -57l64 414h313l-231 -1473h-264l-8 88q-123 -109 -271 -108q-156 0 -243 105.5t-87 320.5zM385 432q0 -211 133 -211q76 0 146 47l90 572q-57 47 -125 47t-118 -49.5t-75.5 -125t-38 -147.5t-12.5 -133z " />
<glyph unicode="e" horiz-adv-x="1001" d="M61 428q0 98 21.5 194.5t68 185.5t112 157.5t162.5 109.5t212 41q160 0 248 -77.5t88 -204.5q0 -96 -46 -172t-125 -120t-172 -66.5t-196 -22.5q-39 0 -57 2q0 -115 55 -167t168 -52q117 0 272 77l-38 -266q-139 -70 -330 -70q-227 0 -335 124t-108 327zM389 655 q12 -2 39 -2q106 0 191.5 40t85.5 118q0 88 -93 88q-82 0 -147.5 -74t-75.5 -170z" />
<glyph unicode="f" horiz-adv-x="782" d="M-266 -418l53 250q80 -35 156 -35q113 0 135 146l149 936h-153l32 219h156q16 82 27 108q43 150 146.5 222.5t285.5 72.5q156 0 254 -43l-53 -219q-106 33 -179 33q-86 0 -119.5 -37t-52.5 -137h258l-34 -219h-258l-148 -922q-33 -207 -134 -314.5t-304 -107.5 q-111 0 -217 47z" />
<glyph unicode="g" horiz-adv-x="1144" d="M18 -385l45 264q66 -35 160 -61.5t174 -26.5q197 0 234 223l10 62q-86 -86 -250 -86q-156 0 -243 108.5t-87 319.5q0 174 53.5 327.5t174.5 262t289 108.5q147 0 235 -88l27 70h266l-172 -1090q-37 -231 -160 -352t-373 -121q-227 0 -383 80zM383 442q0 -211 133 -211 q78 0 150 50l86 550q-61 51 -129 52q-66 0 -116 -48.5t-75.5 -121t-37 -141.5t-11.5 -130z" />
<glyph unicode="h" horiz-adv-x="1161" d="M33 0l231 1473h314l-74 -459q150 102 315 102q256 0 256 -242q0 -51 -14 -147l-115 -727h-311l110 705q6 61 7 71q-4 84 -93 84q-90 0 -190 -74l-125 -786h-311z" />
<glyph unicode="i" horiz-adv-x="561" d="M37 0l174 1098h309l-172 -1098h-311zM231 1366q0 84 56.5 138.5t148.5 54.5q72 0 114 -40t42 -106q0 -86 -56.5 -144.5t-150.5 -58.5q-72 0 -113 42t-41 114z" />
<glyph unicode="j" horiz-adv-x="565" d="M-352 -410l51 254q98 -47 199 -47q106 0 129 146l184 1155h313l-182 -1145q-33 -211 -126 -314.5t-300 -103.5q-162 0 -268 55zM231 1366q0 84 57.5 138.5t147.5 54.5q74 0 115 -39t41 -107q0 -86 -55.5 -144.5t-149.5 -58.5q-72 0 -114 42t-42 114z" />
<glyph unicode="k" horiz-adv-x="1165" d="M31 0l233 1473h314l-86 -533q55 74 147 125t197 51q127 0 202.5 -72.5t75.5 -199.5q0 -141 -78 -228.5t-217 -152.5q12 -51 33 -109q45 -119 168 -118q37 0 57 4l-37 -238q-74 -20 -159 -20q-195 0 -283 188q-68 150 -92 334l35 43q113 12 195.5 76.5t82.5 150.5 q0 104 -94 105q-102 0 -190.5 -118t-110.5 -259l-80 -502h-313z" />
<glyph unicode="l" horiz-adv-x="704" d="M70 211q0 51 8 98l184 1164h313l-167 -1067q-8 -53 -9 -82q0 -88 76 -88q84 0 162 34l-37 -245q-119 -47 -256 -48q-147 0 -210.5 59.5t-63.5 174.5z" />
<glyph unicode="m" horiz-adv-x="1738" d="M33 0l172 1098h270l6 -103q158 121 322 121q180 0 237 -127q170 127 357 127q260 0 260 -233q0 -61 -12 -140l-119 -743h-312l111 705q8 45 8 71q-2 84 -94 84q-72 0 -178 -67l-125 -793h-311l110 705q8 45 8 71q-2 84 -92 84q-80 0 -182 -74l-123 -786h-313z" />
<glyph unicode="n" horiz-adv-x="1159" d="M33 0l172 1098h274v-99q170 117 340 117q256 0 256 -233q0 -61 -12 -140l-117 -743h-311l108 694q8 45 9 88q-2 78 -90.5 78t-192.5 -74l-123 -786h-313z" />
<glyph unicode="o" horiz-adv-x="1128" d="M59 428q0 133 35 252t102.5 218t183.5 158.5t265 59.5q213 0 310.5 -114.5t97.5 -311.5q0 -133 -34 -256t-101.5 -228.5t-186.5 -169t-270 -63.5q-213 0 -307.5 124t-94.5 331zM377 418q0 -201 129 -201q63 0 109.5 49t70 127t34.5 151.5t11 143.5q0 186 -125 186 q-63 0 -111.5 -47t-72 -120.5t-34.5 -146t-11 -142.5z" />
<glyph unicode="p" horiz-adv-x="1144" d="M-37 -428l242 1526h282l5 -90q145 109 294 108q295 0 295 -383q0 -129 -29.5 -256t-89 -241.5t-165 -185t-240.5 -70.5q-133 0 -211 59l-74 -467h-309zM383 248q47 -27 113 -27q92 0 156.5 80t89 179.5t24.5 197.5q0 188 -127 188q-82 0 -166 -53z" />
<glyph unicode="q" horiz-adv-x="1144" d="M59 393q0 184 52.5 343t174.5 269.5t292 110.5q147 0 227 -88l26 70h273l-244 -1526h-299l80 500q-100 -92 -260 -92q-147 0 -234.5 108t-87.5 305zM383 424q0 -203 133 -203q76 0 146 47l88 572q-57 47 -123 47q-68 0 -119 -49.5t-76.5 -126t-37 -149t-11.5 -138.5z" />
<glyph unicode="r" horiz-adv-x="825" d="M33 0l174 1098h270v-111q129 129 258 129q94 0 152 -31l-105 -290q-66 35 -129 34q-92 0 -188 -71l-119 -758h-313z" />
<glyph unicode="s" horiz-adv-x="944" d="M6 59l49 254q51 -39 154.5 -70.5t173.5 -31.5q150 0 149 104q0 45 -45 77t-110.5 55.5t-130 56.5t-109.5 98.5t-45 159.5q0 164 122 259t308 95q233 0 396 -123l-115 -198q-145 96 -266 96q-129 0 -129 -96q0 -45 45 -78t109.5 -58.5t128 -58.5t108.5 -97.5t45 -156.5 q0 -186 -131 -280.5t-344 -94.5q-113 0 -212.5 27.5t-150.5 60.5z" />
<glyph unicode="t" horiz-adv-x="772" d="M66 879l34 219h142l34 198l332 131l-53 -329h231l-32 -219h-234l-82 -500q0 -4 -3 -27.5t-3 -36.5q0 -82 82 -82q80 0 168 39l-35 -247q-106 -47 -270 -48q-139 0 -203.5 62.5t-64.5 169.5q0 37 8 94l92 576h-143z" />
<glyph unicode="u" horiz-adv-x="1161" d="M74 215q0 61 12 139l113 711l319 33l-110 -701q-8 -49 -9 -75q0 -84 93 -84q86 0 192 71l123 789h313l-172 -1098h-274v90q-160 -111 -332 -110q-268 -1 -268 235z" />
<glyph unicode="v" horiz-adv-x="1089" d="M76 1065l315 33l111 -815q137 215 207 413q35 98 34 172q0 106 -43 179l285 73q72 -98 72 -223q0 -137 -86 -326q-109 -240 -350 -571h-371z" />
<glyph unicode="w" horiz-adv-x="1650" d="M76 1067l295 31l121 -813q150 229 210 411q33 102 33 170q0 109 -43 176l283 76q72 -94 72 -225q0 -125 -86 -297l102 -326q143 238 209 424q35 98 35 170q0 113 -45 178l282 76q74 -98 74 -225q0 -135 -86 -322q-111 -242 -344 -571h-301l-109 326q-94 -166 -209 -326 h-329z" />
<glyph unicode="x" horiz-adv-x="1071" d="M-82 0l420 565l-236 502l304 31l139 -326l237 326l303 -33l-401 -535l107 -206q45 -94 151 -95q27 0 41 2l-35 -233q-66 -18 -141 -18q-86 0 -144.5 46t-109.5 142l-72 133l-221 -301h-342z" />
<glyph unicode="y" horiz-adv-x="1087" d="M-307 -391l45 270q139 -80 252 -80q111 0 217 125q33 39 67 103l-200 1038l309 33l125 -791q141 225 203 391q33 98 32 166q0 111 -43 180l281 76q74 -94 74 -227q0 -131 -88 -313q-102 -219 -353 -582q-74 -109 -132 -180.5t-136 -142t-166 -105.5t-188 -35 q-176 0 -299 74z" />
<glyph unicode="z" horiz-adv-x="976" d="M-31 0l31 195l596 684h-461l33 219h846l-29 -178l-610 -695h483l-35 -225h-854z" />
<glyph unicode="{" horiz-adv-x="759" d="M90 606l31 187q88 2 128 44t54 132l59 362q23 147 109 226t225 79q109 0 185 -34l-52 -197q-49 16 -75 16q-90 0 -111 -116l-57 -365q-29 -180 -187 -244q113 -57 113 -188q0 -31 -6 -68l-62 -383q-4 -37 -4 -53q0 -80 84 -80q39 0 82 13l10 -197q-88 -35 -217 -35 q-252 0 -252 240q0 37 7 73l61 394q6 35 6 63q0 125 -131 131z" />
<glyph unicode="|" horiz-adv-x="518" d="M-8 -242l287 1813h272l-287 -1813h-272z" />
<glyph unicode="}" horiz-adv-x="759" d="M-96 -260l51 197q43 -14 76 -15q94 0 110 115l58 364q29 180 186 244q-113 55 -113 189q0 31 7 67l61 383q4 37 4 53q0 80 -84 80q-35 0 -82 -10l-10 195q88 35 215 34q254 0 254 -237q0 -39 -6 -76l-64 -393q-4 -45 -4 -64q0 -125 131 -131l-30 -186q-88 -2 -128 -44 t-55 -130l-59 -365q-23 -147 -109 -226t-225 -79q-108 0 -184 35z" />
<glyph unicode="~" horiz-adv-x="1302" d="M31 555q66 74 112.5 119t124.5 86t156 41q92 0 241.5 -80t223.5 -80q100 0 229 145l158 -153q-172 -242 -397 -242q-109 0 -256.5 76t-202.5 76q-94 0 -234 -144z" />
<glyph unicode="&#xa1;" horiz-adv-x="552" d="M-37 -375l197 1037h256l-125 -1037h-328zM176 932q0 78 48 131t136 53q61 0 97.5 -40t36.5 -101q0 -74 -49.5 -128t-131.5 -54q-66 0 -101.5 40t-35.5 99z" />
<glyph unicode="&#xa2;" horiz-adv-x="1105" d="M131 522q0 252 104.5 439.5t321.5 246.5l29 174h282l-28 -174q209 -66 239 -307l-284 -94q-18 160 -129 160q-76 0 -125 -75t-65.5 -165t-16.5 -186q0 -180 121 -181q100 0 176 166l245 -100q-92 -242 -333 -303l-31 -199h-281l31 197q-256 75 -256 401z" />
<glyph unicode="&#xa3;" horiz-adv-x="1167" d="M4 0l19 186q139 33 217.5 125t78.5 221q0 33 -6 70h-215l47 205h140q-14 82 -15 160q0 215 145.5 339t364.5 124q373 0 432 -336l-268 -82q-31 172 -172 172q-96 0 -145 -59.5t-49 -151.5q0 -72 22 -166h358l-45 -203h-295q6 -35 7 -63q0 -186 -168 -318h565l-51 -223 h-967z" />
<glyph unicode="&#xa5;" horiz-adv-x="1171" d="M102 524l37 238h209l-233 641h321l178 -563l336 563h328l-414 -641h217l-39 -238h-311l-82 -524h-319l82 524h-310z" />
<glyph unicode="&#xa6;" horiz-adv-x="522" d="M-10 -242l129 822h276l-129 -822h-276zM160 821l116 750h277l-119 -750h-274z" />
<glyph unicode="&#xa7;" horiz-adv-x="1200" d="M-53 -147l221 184q39 -51 99.5 -91t117.5 -40q61 0 95 30.5t34 84t-25.5 118t-57.5 118.5t-114 187q-162 264 -161 449q0 256 174 429t442 173q315 0 451 -254l-224 -149q-90 133 -190 133q-59 0 -92 -28t-33 -77q0 -55 55.5 -149t122 -185.5t121.5 -225.5t55 -261 q0 -274 -172 -472t-467 -198q-172 0 -288.5 73t-163.5 151zM379 944q0 -98 54 -214t117.5 -207t118 -218t54.5 -246q0 -76 -21 -147l13 -8q111 145 110 342q0 100 -41 204.5t-97 190.5t-111.5 171t-88 179t-20.5 183l-8 4q-80 -109 -80 -234z" />
<glyph unicode="&#xa8;" horiz-adv-x="1024" d="M141 1360q0 70 48.5 119t127.5 49q66 0 100 -34t34 -93q0 -74 -48.5 -126t-128.5 -52q-63 0 -98 38t-35 99zM571 1360q0 70 48.5 119t128.5 49q66 0 99.5 -34t33.5 -93q0 -74 -48.5 -126t-127.5 -52q-63 0 -98.5 38t-35.5 99z" />
<glyph unicode="&#xa9;" horiz-adv-x="1802" d="M133 723q0 334 219 553t559 219q350 0 574.5 -217t224.5 -543q0 -342 -223 -559t-576 -217q-356 0 -567 213t-211 551zM317 723q0 -268 167 -437t429 -169q270 0 441.5 166t171.5 440q0 268 -173 439t-440 171q-270 0 -433 -169t-163 -441zM520 723q0 219 116 346 t294 127q211 0 325 -195l-129 -94q-51 66 -92 95.5t-108 29.5q-106 0 -161.5 -88t-55.5 -233q0 -125 58 -204t153 -79q90 0 194 90l98 -125q-133 -127 -301 -127q-90 0 -159.5 29t-112.5 75t-70.5 108.5t-38 122t-10.5 122.5z" />
<glyph unicode="&#xaa;" horiz-adv-x="935" d="M145 975q0 123 38 232.5t129 187.5t218 78q109 0 168 -64l19 51h219l-94 -530q-4 -29 -4 -37q0 -55 53 -55q20 0 45 6l-21 -152q-61 -25 -151 -24q-115 0 -152 86q-96 -84 -213 -84q-121 0 -187.5 77.5t-66.5 227.5zM397 991q0 -141 92 -141q55 0 105 35l59 377 q-43 39 -90 38q-59 0 -100 -61t-53.5 -126t-12.5 -122z" />
<glyph unicode="&#xab;" horiz-adv-x="1273" d="M41 582l498 454l153 -184l-313 -279l227 -286l-198 -164zM629 582l497 454l154 -184l-313 -279l227 -286l-199 -164z" />
<glyph unicode="&#xac;" d="M84 561l39 250h934l-88 -563h-248l49 313h-686z" />
<glyph unicode="&#xad;" horiz-adv-x="800" d="M145 504l33 237h617l-33 -237h-617z" />
<glyph unicode="&#xae;" horiz-adv-x="1011" d="M180 1102q0 172 111.5 283.5t288.5 111.5q178 0 292.5 -110.5t114.5 -278.5q0 -174 -112.5 -285.5t-294.5 -111.5q-184 0 -292 109.5t-108 281.5zM287 1102q0 -131 82 -214t211 -83q133 0 217 81t84 216q0 131 -85 215t-216 84q-133 0 -213 -83t-80 -216zM436 895v426 h164q147 0 148 -119q0 -86 -78 -121l84 -186h-90l-76 172h-66v-172h-86zM522 1130h45q94 0 95 68q0 57 -93 57h-47v-125z" />
<glyph unicode="&#xaf;" horiz-adv-x="1024" d="M174 1272l37 215h637l-35 -215h-639z" />
<glyph unicode="&#xb0;" horiz-adv-x="626" d="M145 1216.5q0 110.5 74 186.5t182 76q117 0 186.5 -73t69.5 -177q0 -117 -74.5 -195t-187.5 -78q-115 0 -182.5 75t-67.5 185.5zM299 1217q0 -51 26.5 -85t75.5 -34q47 0 75 34.5t28 84.5q0 53 -26.5 85.5t-76.5 32.5q-102 1 -102 -118z" />
<glyph unicode="&#xb1;" d="M-6 -2l41 252h360l43 291h-356l43 254h354l58 356h262l-58 -356h355l-41 -254h-355l-45 -291h353l-41 -252h-973z" />
<glyph unicode="&#xb2;" horiz-adv-x="819" d="M111 799l26 157q190 135 326 265q39 37 59.5 57t44 62t23.5 81q0 37 -23.5 58.5t-64.5 21.5q-82 0 -162 -112l-152 98q57 92 152.5 148.5t212.5 56.5q133 0 204.5 -59.5t71.5 -172.5q0 -129 -114 -248q-113 -117 -254 -225h311l-31 -188h-630z" />
<glyph unicode="&#xb3;" horiz-adv-x="819" d="M100 872l105 170q90 -76 196 -75q59 0 100.5 28.5t41.5 85.5q0 92 -111 93h-102l22 153h103q55 0 95 25.5t40 79.5q0 37 -23.5 57t-58.5 20q-84 0 -160 -94l-135 105q141 172 346 172q123 0 191.5 -54.5t68.5 -152.5q0 -158 -170 -230q133 -39 133 -170 q0 -143 -111.5 -222t-277.5 -79q-176 0 -293 88z" />
<glyph unicode="&#xb4;" horiz-adv-x="1024" d="M246 1358l446 244l86 -207l-459 -199z" />
<glyph unicode="&#xb5;" horiz-adv-x="1247" d="M2 -397l238 1495h305l-113 -717q-4 -37 -4 -53q0 -135 127 -135q104 0 151.5 65.5t73.5 230.5l97 609h309l-131 -832q-4 -25 -4 -35q0 -51 49 -51q29 0 47 8l-8 -178q-84 -35 -181 -35q-76 0 -120.5 38t-51.5 102q-98 -137 -254 -138q-63 0 -107 30t-56 69l-76 -473h-291 z" />
<glyph unicode="&#xb6;" horiz-adv-x="1218" d="M39 -307l94 258q117 -61 256 -62q92 0 143.5 52.5t69.5 171.5l74 460q-229 0 -362.5 100.5t-133.5 303.5q0 236 165 366t425 130h510l-41 -244h-156l-180 -1141q-37 -231 -158.5 -345t-363.5 -114q-201 1 -342 64z" />
<glyph unicode="&#xb7;" horiz-adv-x="641" d="M186 721q0 86 54.5 143.5t140.5 57.5q70 0 108.5 -40t38.5 -108q0 -86 -54 -143.5t-140 -57.5q-72 0 -110 39t-38 109z" />
<glyph unicode="&#xb8;" horiz-adv-x="1024" d="M236 -522l47 137q45 -12 90 -12q53 0 89 25.5t36 72.5q0 61 -72 61q-39 0 -90 -10l20 133q78 18 146 19q90 0 138 -49.5t48 -124.5q0 -119 -90 -195t-238 -76q-65 1 -124 19z" />
<glyph unicode="&#xb9;" horiz-adv-x="819" d="M145 801l25 166h162l86 542h-150l25 168h391l-113 -710h168l-24 -166h-570z" />
<glyph unicode="&#xba;" horiz-adv-x="847" d="M143 999q0 205 113 340.5t319 135.5q160 0 232 -85t72 -216q0 -205 -110 -351.5t-318 -146.5q-162 0 -235 89t-73 234zM389 979q0 -123 88 -123q78 0 115 106.5t37 217.5q0 119 -84 118q-57 0 -94 -60t-49.5 -128t-12.5 -131z" />
<glyph unicode="&#xbb;" horiz-adv-x="1263" d="M-20 307l313 279l-227 286l198 164l367 -458l-498 -455zM567 307l314 279l-228 286l199 164l367 -458l-498 -455z" />
<glyph unicode="&#xbc;" horiz-adv-x="1972" d="M88 596l25 166h161l86 543h-149l25 168h391l-113 -711h168l-25 -166h-569zM489 0l762 1473h277l-764 -1473h-275zM1106 190l18 121l432 570h275l-86 -537h113l-25 -156h-111l-30 -188h-226l31 190h-391zM1325 344h195l61 346h-10z" />
<glyph unicode="&#xbd;" horiz-adv-x="1972" d="M63 596l25 166h162l86 543h-150l25 168h391l-113 -711h168l-24 -166h-570zM467 0l762 1473h276l-764 -1473h-274zM1153 0l27 158q190 135 325 264q39 37 59.5 57.5t44 62.5t23.5 81q0 37 -23.5 58t-64.5 21q-82 0 -162 -112l-151 98q57 92 152.5 148.5t211.5 56.5 q133 0 205 -59.5t72 -171.5q0 -129 -115 -248q-113 -117 -254 -226h312l-31 -188h-631z" />
<glyph unicode="&#xbe;" horiz-adv-x="1972" d="M66 668l104 170q90 -76 197 -76q59 0 100 28.5t41 86.5q0 92 -111 92h-102l22 153h103q55 0 95 26t40 79q0 37 -23.5 57.5t-58.5 20.5q-84 0 -160 -95l-135 105q141 172 346 172q123 0 191.5 -54.5t68.5 -152.5q0 -158 -170 -229q133 -39 134 -170q0 -143 -112 -222 t-278 -79q-175 0 -292 88zM489 0l762 1473h277l-764 -1473h-275zM1092 190l18 121l432 570h275l-86 -537h112l-24 -156h-111l-31 -188h-225l31 190h-391zM1311 344h194l62 346h-11z" />
<glyph unicode="&#xbf;" horiz-adv-x="897" d="M-8 -27q0 354 444 463l37 228h307l-63 -402q-78 -2 -144.5 -15.5t-129 -40t-98.5 -75.5t-36 -117q0 -152 183 -151q90 0 202 26l15 -231q-139 -35 -299 -35q-201 0 -309.5 95t-108.5 255zM508 932q0 78 48 131t136 53q63 0 99 -40t36 -101q0 -74 -50 -128t-132 -54 q-66 0 -101.5 40t-35.5 99z" />
<glyph unicode="&#xc0;" horiz-adv-x="1286" d="M-78 0l651 1473h398l227 -1473h-321l-48 348h-428l-151 -348h-328zM487 573h316l-60 631h-8zM520 1710l101 215l421 -186l-75 -170z" />
<glyph unicode="&#xc1;" horiz-adv-x="1286" d="M-78 0l651 1473h398l227 -1473h-321l-48 348h-428l-151 -348h-328zM487 573h316l-60 631h-8zM549 1733l459 172l57 -211l-465 -125z" />
<glyph unicode="&#xc2;" horiz-adv-x="1286" d="M-78 0l651 1473h398l227 -1473h-321l-48 348h-428l-151 -348h-328zM457 1665l245 213h232l180 -227l-139 -103l-176 146l-234 -142zM487 573h316l-60 631h-8z" />
<glyph unicode="&#xc3;" horiz-adv-x="1286" d="M-78 0l651 1473h398l227 -1473h-321l-48 348h-428l-151 -348h-328zM487 573h316l-60 631h-8zM498 1597l8 199q37 27 95 50.5t108 23.5q45 0 125.5 -29t128.5 -29q84 0 151 41l-20 -211q-61 -35 -152 -34q-49 0 -136 23.5t-122 23.5q-96 -1 -186 -58z" />
<glyph unicode="&#xc4;" horiz-adv-x="1286" d="M-78 0l651 1473h398l227 -1473h-321l-48 348h-428l-151 -348h-328zM436 1735q0 70 48 119t128 49q63 0 98 -34t35 -93q0 -74 -48 -126.5t-128 -52.5q-63 0 -98 38.5t-35 99.5zM487 573h316l-60 631h-8zM866 1735q0 70 48.5 119t127.5 49q63 0 98.5 -34t35.5 -93 q0 -74 -48.5 -126.5t-128.5 -52.5q-63 0 -98 38.5t-35 99.5z" />
<glyph unicode="&#xc5;" horiz-adv-x="1286" d="M-78 0l651 1473q-35 51 -34 131q0 123 84 202.5t211 79.5q104 0 159.5 -62.5t55.5 -152.5q0 -123 -78 -205l227 -1466h-321l-48 348h-428l-151 -348h-328zM487 573h316l-60 631h-8zM692 1612q0 -41 23.5 -70t66.5 -29q49 0 80 39t31 97q0 45 -22.5 73.5t-67.5 28.5 q-49 0 -80 -39t-31 -100z" />
<glyph unicode="&#xc6;" horiz-adv-x="1843" d="M-78 0l858 1475h1118l-38 -246h-592l-58 -355h514l-36 -245h-514l-62 -383h617l-39 -246h-936l59 369h-360l-205 -369h-326zM586 604h264l104 647h-16z" />
<glyph unicode="&#xc7;" horiz-adv-x="1222" d="M96 575q0 172 43 332t129 296t233.5 218t336.5 82q442 0 446 -428l-297 -67q-10 246 -184 245q-96 0 -171 -65.5t-115 -170t-59.5 -211t-19.5 -208.5q0 -172 66.5 -266t200.5 -94q164 0 358 102l20 -266q-205 -102 -465 -103q-143 0 -247.5 48.5t-162.5 134.5t-85 190 t-27 231zM328 -522l45 137q45 -12 90 -12q53 0 89 25.5t36 72.5q0 61 -72 61q-37 0 -88 -10l21 133q74 18 145 19q90 0 137 -49.5t47 -124.5q0 -119 -90 -195t-235 -76q-68 1 -125 19z" />
<glyph unicode="&#xc8;" horiz-adv-x="1153" d="M66 0l231 1473h911l-37 -246h-591l-56 -353h512l-37 -245h-514l-61 -381h614l-37 -248h-935zM477 1710l101 215l421 -186l-75 -170z" />
<glyph unicode="&#xc9;" horiz-adv-x="1153" d="M66 0l231 1473h911l-37 -246h-591l-56 -353h512l-37 -245h-514l-61 -381h614l-37 -248h-935zM565 1733l459 172l57 -211l-465 -125z" />
<glyph unicode="&#xca;" horiz-adv-x="1153" d="M66 0l231 1473h911l-37 -246h-591l-56 -353h512l-37 -245h-514l-61 -381h614l-37 -248h-935zM442 1665l246 213h232l180 -227l-139 -103l-177 146l-233 -142z" />
<glyph unicode="&#xcb;" horiz-adv-x="1153" d="M66 0l231 1473h911l-37 -246h-591l-56 -353h512l-37 -245h-514l-61 -381h614l-37 -248h-935zM420 1735q0 70 48 119t128 49q63 0 98 -34t35 -93q0 -74 -48 -126.5t-128 -52.5q-63 0 -98 38.5t-35 99.5zM850 1735q0 70 48 119t128 49q63 0 98 -34t35 -93q0 -74 -48 -126.5 t-128 -52.5q-63 0 -98 38.5t-35 99.5z" />
<glyph unicode="&#xcc;" horiz-adv-x="634" d="M66 0l231 1473h319l-231 -1473h-319zM182 1710l101 215l422 -186l-76 -170z" />
<glyph unicode="&#xcd;" horiz-adv-x="634" d="M66 0l231 1473h319l-231 -1473h-319zM244 1733l458 172l58 -211l-465 -125z" />
<glyph unicode="&#xce;" horiz-adv-x="634" d="M66 0l231 1473h319l-231 -1473h-319zM145 1665l246 213h232l180 -227l-139 -103l-177 146l-233 -142z" />
<glyph unicode="&#xcf;" horiz-adv-x="634" d="M66 0l231 1473h319l-231 -1473h-319zM121 1735q0 70 48 119t128 49q63 0 98 -34t35 -93q0 -74 -48 -126.5t-128 -52.5q-63 0 -98 38.5t-35 99.5zM551 1735q0 70 48 119t128 49q63 0 98 -34t35 -93q0 -74 -48 -126.5t-128 -52.5q-63 0 -98 38.5t-35 99.5z" />
<glyph unicode="&#xd0;" horiz-adv-x="1345" d="M37 618l37 236h127l96 619h485q242 0 383.5 -129.5t141.5 -407.5q0 -358 -161 -606t-427 -312q-82 -18 -262 -18h-391l96 618h-125zM422 233h113q137 0 238 99.5t147.5 251t46.5 329.5q0 180 -66.5 252t-202.5 72h-116l-62 -383h236l-35 -236h-238z" />
<glyph unicode="&#xd1;" horiz-adv-x="1435" d="M66 0l233 1473h297l356 -945l11 2l149 943h307l-233 -1473h-281l-375 946l-10 -2l-141 -944h-313zM571 1597l9 199q37 27 95 50.5t107 23.5q45 0 126 -29t128 -29q84 0 152 41l-21 -211q-61 -35 -151 -34q-49 0 -136 23.5t-122 23.5q-97 -1 -187 -58z" />
<glyph unicode="&#xd2;" horiz-adv-x="1402" d="M94 541q0 143 25.5 277t84 260t144.5 219.5t216 149.5t290 56q244 0 373 -138t129 -394q0 -147 -25.5 -285.5t-83 -269.5t-143.5 -228.5t-216 -157t-290 -59.5q-231 0 -367.5 141.5t-136.5 428.5zM430 549q0 -324 209 -324q96 0 172 70t119 180.5t65.5 232t22.5 240.5 q0 297 -207 297q-106 0 -186 -72.5t-119 -187.5t-57.5 -224.5t-18.5 -211.5zM602 1710l100 215l422 -186l-75 -170z" />
<glyph unicode="&#xd3;" horiz-adv-x="1402" d="M94 541q0 143 25.5 277t84 260t144.5 219.5t216 149.5t290 56q244 0 373 -138t129 -394q0 -147 -25.5 -285.5t-83 -269.5t-143.5 -228.5t-216 -157t-290 -59.5q-231 0 -367.5 141.5t-136.5 428.5zM430 549q0 -324 209 -324q96 0 172 70t119 180.5t65.5 232t22.5 240.5 q0 297 -207 297q-106 0 -186 -72.5t-119 -187.5t-57.5 -224.5t-18.5 -211.5zM659 1733l459 172l58 -211l-465 -125z" />
<glyph unicode="&#xd4;" horiz-adv-x="1402" d="M94 541q0 143 25.5 277t84 260t144.5 219.5t216 149.5t290 56q244 0 373 -138t129 -394q0 -147 -25.5 -285.5t-83 -269.5t-143.5 -228.5t-216 -157t-290 -59.5q-231 0 -367.5 141.5t-136.5 428.5zM430 549q0 -324 209 -324q96 0 172 70t119 180.5t65.5 232t22.5 240.5 q0 297 -207 297q-106 0 -186 -72.5t-119 -187.5t-57.5 -224.5t-18.5 -211.5zM535 1665l245 213h232l180 -227l-139 -103l-176 146l-234 -142z" />
<glyph unicode="&#xd5;" horiz-adv-x="1402" d="M94 541q0 143 25.5 277t84 260t144.5 219.5t216 149.5t290 56q244 0 373 -138t129 -394q0 -147 -25.5 -285.5t-83 -269.5t-143.5 -228.5t-216 -157t-290 -59.5q-231 0 -367.5 141.5t-136.5 428.5zM430 549q0 -324 209 -324q96 0 172 70t119 180.5t65.5 232t22.5 240.5 q0 297 -207 297q-106 0 -186 -72.5t-119 -187.5t-57.5 -224.5t-18.5 -211.5zM555 1597l8 199q37 27 95.5 50.5t107.5 23.5q45 0 126 -29t128 -29q84 0 151 41l-20 -211q-61 -35 -152 -34q-49 0 -136 23.5t-122 23.5q-96 -1 -186 -58z" />
<glyph unicode="&#xd6;" horiz-adv-x="1402" d="M94 541q0 143 25.5 277t84 260t144.5 219.5t216 149.5t290 56q244 0 373 -138t129 -394q0 -147 -25.5 -285.5t-83 -269.5t-143.5 -228.5t-216 -157t-290 -59.5q-231 0 -367.5 141.5t-136.5 428.5zM430 549q0 -324 209 -324q96 0 172 70t119 180.5t65.5 232t22.5 240.5 q0 297 -207 297q-106 0 -186 -72.5t-119 -187.5t-57.5 -224.5t-18.5 -211.5zM514 1735q0 70 48 119t128 49q63 0 98 -34t35 -93q0 -74 -48 -126.5t-128 -52.5q-63 0 -98 38.5t-35 99.5zM944 1735q0 70 48 119t128 49q63 0 98 -34t35 -93q0 -74 -48 -126.5t-128 -52.5 q-63 0 -98 38.5t-35 99.5z" />
<glyph unicode="&#xd7;" d="M-4 305l391 340l-278 344l225 185l289 -349l405 346l158 -186l-387 -338l284 -344l-219 -180l-301 346l-413 -348z" />
<glyph unicode="&#xd8;" horiz-adv-x="1402" d="M74 -106l147 229q-127 147 -127 418q0 143 25.5 277t84 260t144.5 219.5t216 149.5t290 56q125 0 221 -37l123 191l176 -119l-127 -197q109 -137 109 -370q0 -147 -25.5 -285.5t-83 -269.5t-143.5 -228.5t-216 -157t-290 -59.5q-106 0 -205 33l-147 -229zM430 549 q0 -59 6 -109l467 785q-39 20 -92 20q-106 0 -186 -72.5t-119 -187.5t-57.5 -224.5t-18.5 -211.5zM559 240q35 -14 80 -15q96 0 172 70t119 180.5t65.5 232t22.5 240.5q0 10 -1 27.5t-1 25.5z" />
<glyph unicode="&#xd9;" horiz-adv-x="1370" d="M119 371q0 70 14 159l148 943h321l-145 -912q-12 -90 -13 -139q0 -182 191 -182q76 0 127 23.5t78.5 77.5t40 101t26.5 131l144 900h319l-153 -955q-43 -272 -177.5 -406.5t-439.5 -134.5q-481 1 -481 394zM549 1710l100 215l422 -186l-76 -170z" />
<glyph unicode="&#xda;" horiz-adv-x="1370" d="M119 371q0 70 14 159l148 943h321l-145 -912q-12 -90 -13 -139q0 -182 191 -182q76 0 127 23.5t78.5 77.5t40 101t26.5 131l144 900h319l-153 -955q-43 -272 -177.5 -406.5t-439.5 -134.5q-481 1 -481 394zM666 1733l458 172l58 -211l-465 -125z" />
<glyph unicode="&#xdb;" horiz-adv-x="1370" d="M119 371q0 70 14 159l148 943h321l-145 -912q-12 -90 -13 -139q0 -182 191 -182q76 0 127 23.5t78.5 77.5t40 101t26.5 131l144 900h319l-153 -955q-43 -272 -177.5 -406.5t-439.5 -134.5q-481 1 -481 394zM518 1665l246 213h231l181 -227l-140 -103l-176 146l-233 -142z " />
<glyph unicode="&#xdc;" horiz-adv-x="1370" d="M119 371q0 70 14 159l148 943h321l-145 -912q-12 -90 -13 -139q0 -182 191 -182q76 0 127 23.5t78.5 77.5t40 101t26.5 131l144 900h319l-153 -955q-43 -272 -177.5 -406.5t-439.5 -134.5q-481 1 -481 394zM477 1735q0 70 48 119t128 49q63 0 98 -34t35 -93 q0 -74 -48 -126.5t-128 -52.5q-63 0 -98 38.5t-35 99.5zM907 1735q0 70 48.5 119t127.5 49q63 0 98.5 -34t35.5 -93q0 -74 -48.5 -126.5t-128.5 -52.5q-63 0 -98 38.5t-35 99.5z" />
<glyph unicode="&#xdd;" horiz-adv-x="1261" d="M127 1473h338l194 -633h11l385 633h346l-613 -938l-83 -535h-320l88 559zM537 1733l458 172l58 -211l-465 -125z" />
<glyph unicode="&#xde;" horiz-adv-x="1241" d="M68 0l233 1473h322l-37 -224h192q219 0 335 -101t116 -290q0 -242 -172 -387t-441 -154h-180l-49 -317h-319zM475 561h133q129 0 209 75t80 206q0 82 -52 130t-143 48h-153z" />
<glyph unicode="&#xdf;" horiz-adv-x="1290" d="M-319 -418l53 250q80 -35 155 -35q113 0 136 146l163 1063q12 80 26.5 135t50.5 125.5t88.5 113.5t143.5 74t212 31q111 0 201.5 -31t154 -106.5t63.5 -186.5q0 -70 -35.5 -139.5t-72.5 -125.5t-37 -95q0 -33 23.5 -64.5t56.5 -62.5t65.5 -68t56 -95t23.5 -132 q0 -174 -134 -286.5t-339 -112.5q-156 0 -270 57l86 225q74 -45 178 -45q84 0 135 42t51 114q0 57 -35.5 107t-77.5 80t-78 79t-36 104q0 66 74 190t74 187.5t-44 98t-110 34.5q-150 0 -178 -194l-168 -1102q-31 -207 -133.5 -314.5t-304.5 -107.5q-111 0 -217 47z" />
<glyph unicode="&#xe0;" horiz-adv-x="1212" d="M66 412q0 -211 86 -321.5t241 -110.5q164 0 299 118q51 -121 209 -121q92 0 186 33l29 205q-66 -16 -88 -16q-61 0 -47 90l127 809h-266l-27 -70q-96 88 -246 88q-162 0 -280.5 -112.5t-170.5 -268t-52 -323.5zM387 434q0 61 11.5 131t37 144.5t74.5 124t115 49.5 q68 0 129 -52l-90 -557q-70 -51 -146 -51q-131 0 -131 211zM432 1430l127 196l385 -276l-100 -152z" />
<glyph unicode="&#xe1;" horiz-adv-x="1212" d="M66 412q0 168 52 323.5t171 268t280 112.5q150 0 246 -88l27 70h266l-127 -809q-14 -90 47 -90q23 0 88 16l-29 -205q-94 -33 -186 -33q-158 0 -209 121q-135 -119 -299 -118q-156 0 -241.5 110.5t-85.5 321.5zM387 434q0 -211 131 -211q76 0 146 51l90 557 q-61 51 -129 52q-66 0 -115 -49.5t-74.5 -124t-37 -144.5t-11.5 -131zM510 1358l446 244l86 -207l-458 -199z" />
<glyph unicode="&#xe2;" horiz-adv-x="1212" d="M66 412q0 -211 86 -321.5t241 -110.5q164 0 299 118q51 -121 209 -121q92 0 186 33l29 205q-66 -16 -88 -16q-61 0 -47 90l127 809h-266l-27 -70q-96 88 -246 88q-162 0 -280.5 -112.5t-170.5 -268t-52 -323.5zM360 1325l271 256h227l178 -270l-141 -115l-178 197 l-250 -197zM387 434q0 61 11.5 131t37 144.5t74.5 124t115 49.5q68 0 129 -52l-90 -557q-70 -51 -146 -51q-131 0 -131 211z" />
<glyph unicode="&#xe3;" horiz-adv-x="1212" d="M66 412q0 168 52 323.5t171 268t280 112.5q150 0 246 -88l27 70h266l-127 -809q-14 -90 47 -90q23 0 88 16l-29 -205q-94 -33 -186 -33q-158 0 -209 121q-135 -119 -299 -118q-156 0 -241.5 110.5t-85.5 321.5zM387 434q0 -211 131 -211q76 0 146 51l90 557 q-61 51 -129 52q-66 0 -115 -49.5t-74.5 -124t-37 -144.5t-11.5 -131zM412 1245l6 199q37 27 96 49.5t107 22.5q45 0 125.5 -29t127.5 -29q82 0 150 41l-20 -209q-68 -35 -150 -35q-49 0 -136 24t-120 24q-96 -1 -186 -58z" />
<glyph unicode="&#xe4;" horiz-adv-x="1212" d="M66 412q0 -211 86 -321.5t241 -110.5q164 0 299 118q51 -121 209 -121q92 0 186 33l29 205q-66 -16 -88 -16q-61 0 -47 90l127 809h-266l-27 -70q-96 88 -246 88q-162 0 -280.5 -112.5t-170.5 -268t-52 -323.5zM356 1360q0 70 48.5 119t127.5 49q66 0 100 -34t34 -93 q0 -74 -48.5 -126t-128.5 -52q-63 0 -98 38t-35 99zM387 434q0 61 11.5 131t37 144.5t74.5 124t115 49.5q68 0 129 -52l-90 -557q-70 -51 -146 -51q-131 0 -131 211zM786 1360q0 70 48.5 119t128.5 49q66 0 99.5 -34t33.5 -93q0 -74 -48.5 -126t-127.5 -52q-63 0 -98.5 38 t-35.5 99z" />
<glyph unicode="&#xe5;" horiz-adv-x="1212" d="M66 412q0 -211 86 -321.5t241 -110.5q164 0 299 118q51 -121 209 -121q92 0 186 33l29 205q-66 -16 -88 -16q-61 0 -47 90l127 809h-266l-27 -70q-96 88 -246 88q-162 0 -280.5 -112.5t-170.5 -268t-52 -323.5zM387 434q0 61 11.5 131t37 144.5t74.5 124t115 49.5 q68 0 129 -52l-90 -557q-70 -51 -146 -51q-131 0 -131 211zM496 1421q0 123 83 203t209 80q106 0 162 -62.5t56 -152.5q0 -125 -81 -208t-210 -83q-104 0 -161.5 64.5t-57.5 158.5zM649 1430q0 -41 23.5 -69t66.5 -28q49 0 80 39t31 96q0 43 -23.5 72t-68.5 29 q-47 0 -78 -38t-31 -101z" />
<glyph unicode="&#xe6;" horiz-adv-x="1626" d="M66 412q0 129 30.5 250.5t91 224t161 166t224.5 63.5q139 0 228 -88l26 70h211l6 -66q102 84 254 84q137 0 218 -75.5t81 -206.5q0 -96 -46 -172t-124.5 -120t-172 -66.5t-195.5 -22.5q-39 0 -58 2q0 -115 55.5 -167t168.5 -52q117 0 272 77l-39 -266q-139 -70 -330 -70 q-246 0 -356 148q-162 -145 -371 -145q-164 0 -249.5 109.5t-85.5 322.5zM387 434q0 -211 139 -211q92 0 174 56q-14 72 -14 149q0 217 96 395q-80 59 -157 60q-66 0 -115 -49.5t-74.5 -124t-37 -144.5t-11.5 -131zM1014 655q12 -2 37 -2q109 0 193.5 39t84.5 117 q0 90 -92 90q-82 0 -147.5 -74t-75.5 -170z" />
<glyph unicode="&#xe7;" horiz-adv-x="978" d="M61 430q0 131 34 250t99.5 218t177 158.5t255.5 59.5q174 0 261 -94t99 -238l-260 -61q-10 70 -37.5 108.5t-89.5 38.5q-80 0 -132 -72.5t-68.5 -154.5t-16.5 -166q0 -248 197 -248q131 0 286 74l-37 -264q-156 -63 -335 -64q-225 0 -329 128t-104 327zM213 -522l47 137 q47 -12 90 -12q53 0 89 25.5t36 72.5q0 61 -72 61q-39 0 -90 -10l21 133q76 18 145 19q90 0 138.5 -49.5t48.5 -124.5q0 -119 -90.5 -195t-237.5 -76q-68 1 -125 19z" />
<glyph unicode="&#xe8;" horiz-adv-x="1001" d="M61 428q0 98 21.5 194.5t68 185.5t112 157.5t162.5 109.5t212 41q160 0 248 -77.5t88 -204.5q0 -96 -46 -172t-125 -120t-172 -66.5t-196 -22.5q-39 0 -57 2q0 -115 55 -167t168 -52q117 0 272 77l-38 -266q-139 -70 -330 -70q-227 0 -335 124t-108 327zM383 1430 l127 196l385 -276l-100 -152zM389 655q12 -2 39 -2q106 0 191.5 40t85.5 118q0 88 -93 88q-82 0 -147.5 -74t-75.5 -170z" />
<glyph unicode="&#xe9;" horiz-adv-x="1001" d="M61 428q0 98 21.5 194.5t68 185.5t112 157.5t162.5 109.5t212 41q160 0 248 -77.5t88 -204.5q0 -96 -46 -172t-125 -120t-172 -66.5t-196 -22.5q-39 0 -57 2q0 -115 55 -167t168 -52q117 0 272 77l-38 -266q-139 -70 -330 -70q-227 0 -335 124t-108 327zM389 655 q12 -2 39 -2q106 0 191.5 40t85.5 118q0 88 -93 88q-82 0 -147.5 -74t-75.5 -170zM436 1358l447 244l86 -207l-459 -199z" />
<glyph unicode="&#xea;" horiz-adv-x="1001" d="M61 428q0 98 21.5 194.5t68 185.5t112 157.5t162.5 109.5t212 41q160 0 248 -77.5t88 -204.5q0 -96 -46 -172t-125 -120t-172 -66.5t-196 -22.5q-39 0 -57 2q0 -115 55 -167t168 -52q117 0 272 77l-38 -266q-139 -70 -330 -70q-227 0 -335 124t-108 327zM319 1325 l271 256h227l178 -270l-141 -115l-178 197l-250 -197zM389 655q12 -2 39 -2q106 0 191.5 40t85.5 118q0 88 -93 88q-82 0 -147.5 -74t-75.5 -170z" />
<glyph unicode="&#xeb;" horiz-adv-x="1001" d="M61 428q0 98 21.5 194.5t68 185.5t112 157.5t162.5 109.5t212 41q160 0 248 -77.5t88 -204.5q0 -96 -46 -172t-125 -120t-172 -66.5t-196 -22.5q-39 0 -57 2q0 -115 55 -167t168 -52q117 0 272 77l-38 -266q-139 -70 -330 -70q-227 0 -335 124t-108 327zM301 1360 q0 70 48 119t128 49q66 0 99.5 -34t33.5 -93q0 -74 -48 -126t-128 -52q-63 0 -98 38t-35 99zM389 655q12 -2 39 -2q106 0 191.5 40t85.5 118q0 88 -93 88q-82 0 -147.5 -74t-75.5 -170zM731 1360q0 70 48 119t128 49q66 0 99.5 -34t33.5 -93q0 -74 -48 -126t-128 -52 q-63 0 -98 38t-35 99z" />
<glyph unicode="&#xec;" horiz-adv-x="561" d="M37 0l174 1098h309l-172 -1098h-311zM109 1430l127 196l385 -276l-101 -152z" />
<glyph unicode="&#xed;" horiz-adv-x="561" d="M37 0l174 1098h309l-172 -1098h-311zM141 1358l447 244l86 -207l-459 -199z" />
<glyph unicode="&#xee;" horiz-adv-x="561" d="M37 0l174 1098h309l-172 -1098h-311zM61 1325l271 256h227l178 -270l-141 -115l-178 197l-250 -197z" />
<glyph unicode="&#xef;" horiz-adv-x="561" d="M37 0l174 1098h309l-172 -1098h-311zM41 1360q0 70 48 119t128 49q66 0 99.5 -34t33.5 -93q0 -74 -48 -126t-128 -52q-63 0 -98 38t-35 99zM471 1360q0 70 48 119t128 49q66 0 99.5 -34t33.5 -93q0 -74 -48 -126t-128 -52q-63 0 -98 38t-35 99z" />
<glyph unicode="&#xf0;" horiz-adv-x="1132" d="M61 440q0 152 51.5 282t167 218t277.5 88q45 0 107.5 -15.5t95.5 -35.5q-14 86 -58.5 145.5t-112 90t-125.5 45t-136 22.5l57 227q215 -10 385 -100l168 131l137 -147l-147 -115q135 -170 135 -483q0 -168 -32 -309.5t-98.5 -258t-185 -183.5t-276.5 -67 q-209 0 -309.5 128t-100.5 337zM377 422q0 -106 29.5 -159.5t99 -53.5t120 50t74 133t33.5 161t10 158q0 12 -1 31.5t-1 27.5q-45 39 -127 39q-68 0 -116.5 -39t-73.5 -101.5t-36 -124t-11 -122.5z" />
<glyph unicode="&#xf1;" horiz-adv-x="1159" d="M33 0l172 1098h274v-99q170 117 340 117q256 0 256 -233q0 -61 -12 -140l-117 -743h-311l108 694q8 45 9 88q-2 78 -90.5 78t-192.5 -74l-123 -786h-313zM408 1245l6 199q37 27 96 49.5t106 22.5q45 0 126 -29t128 -29q82 0 150 41l-21 -209q-68 -35 -149 -35 q-49 0 -136 24t-120 24q-96 -1 -186 -58z" />
<glyph unicode="&#xf2;" horiz-adv-x="1128" d="M59 428q0 133 35 252t102.5 218t183.5 158.5t265 59.5q213 0 310.5 -114.5t97.5 -311.5q0 -133 -34 -256t-101.5 -228.5t-186.5 -169t-270 -63.5q-213 0 -307.5 124t-94.5 331zM377 418q0 -201 129 -201q63 0 109.5 49t70 127t34.5 151.5t11 143.5q0 186 -125 186 q-63 0 -111.5 -47t-72 -120.5t-34.5 -146t-11 -142.5zM387 1430l127 196l385 -276l-100 -152z" />
<glyph unicode="&#xf3;" horiz-adv-x="1128" d="M59 428q0 133 35 252t102.5 218t183.5 158.5t265 59.5q213 0 310.5 -114.5t97.5 -311.5q0 -133 -34 -256t-101.5 -228.5t-186.5 -169t-270 -63.5q-213 0 -307.5 124t-94.5 331zM377 418q0 -201 129 -201q63 0 109.5 49t70 127t34.5 151.5t11 143.5q0 186 -125 186 q-63 0 -111.5 -47t-72 -120.5t-34.5 -146t-11 -142.5zM459 1358l446 244l86 -207l-459 -199z" />
<glyph unicode="&#xf4;" horiz-adv-x="1128" d="M59 428q0 133 35 252t102.5 218t183.5 158.5t265 59.5q213 0 310.5 -114.5t97.5 -311.5q0 -133 -34 -256t-101.5 -228.5t-186.5 -169t-270 -63.5q-213 0 -307.5 124t-94.5 331zM344 1325l270 256h228l178 -270l-141 -115l-179 197l-249 -197zM377 418q0 -201 129 -201 q63 0 109.5 49t70 127t34.5 151.5t11 143.5q0 186 -125 186q-63 0 -111.5 -47t-72 -120.5t-34.5 -146t-11 -142.5z" />
<glyph unicode="&#xf5;" horiz-adv-x="1128" d="M59 428q0 133 35 252t102.5 218t183.5 158.5t265 59.5q213 0 310.5 -114.5t97.5 -311.5q0 -133 -34 -256t-101.5 -228.5t-186.5 -169t-270 -63.5q-213 0 -307.5 124t-94.5 331zM377 418q0 -201 129 -201q63 0 109.5 49t70 127t34.5 151.5t11 143.5q0 186 -125 186 q-63 0 -111.5 -47t-72 -120.5t-34.5 -146t-11 -142.5zM379 1245l6 199q37 27 96.5 49.5t106.5 22.5q45 0 126 -29t128 -29q82 0 149 41l-20 -209q-68 -35 -150 -35q-49 0 -136 24t-120 24q-96 -1 -186 -58z" />
<glyph unicode="&#xf6;" horiz-adv-x="1128" d="M59 428q0 133 35 252t102.5 218t183.5 158.5t265 59.5q213 0 310.5 -114.5t97.5 -311.5q0 -133 -34 -256t-101.5 -228.5t-186.5 -169t-270 -63.5q-213 0 -307.5 124t-94.5 331zM324 1360q0 70 48 119t128 49q66 0 99.5 -34t33.5 -93q0 -74 -48 -126t-128 -52 q-63 0 -98 38t-35 99zM377 418q0 -201 129 -201q63 0 109.5 49t70 127t34.5 151.5t11 143.5q0 186 -125 186q-63 0 -111.5 -47t-72 -120.5t-34.5 -146t-11 -142.5zM754 1360q0 70 48 119t128 49q66 0 99.5 -34t33.5 -93q0 -74 -48 -126t-128 -52q-63 0 -98 38t-35 99z" />
<glyph unicode="&#xf7;" d="M68 510l41 252h972l-41 -252h-972zM344 193q0 78 47 130t123 52q61 0 96 -36t35 -93q0 -78 -49 -129t-125 -51q-63 0 -95 34t-32 93zM483 1020q0 78 47.5 130t122.5 52q61 0 96 -36t35 -93q0 -78 -49 -129t-125 -51q-63 0 -95 34t-32 93z" />
<glyph unicode="&#xf8;" horiz-adv-x="1128" d="M59 428q0 133 35 252t102.5 218t183.5 158.5t265 59.5q31 0 76 -4l80 160l160 -78l-70 -139q162 -100 162 -365q0 -133 -34 -256t-101.5 -228.5t-186.5 -169t-270 -63.5q-41 0 -99 9l-88 -168l-151 80l80 155q-144 113 -144 379zM377 418q0 -33 2 -47l225 503 q-84 0 -138 -84.5t-71.5 -180t-17.5 -191.5zM494 217h12q63 0 109.5 49t70 127t34.5 151.5t11 143.5q0 20 -4 53z" />
<glyph unicode="&#xf9;" horiz-adv-x="1161" d="M74 215q0 61 12 139l113 711l319 33l-110 -701q-8 -49 -9 -75q0 -84 93 -84q86 0 192 71l123 789h313l-172 -1098h-274v90q-160 -111 -332 -110q-268 -1 -268 235zM426 1430l127 196l385 -276l-100 -152z" />
<glyph unicode="&#xfa;" horiz-adv-x="1161" d="M74 215q0 61 12 139l113 711l319 33l-110 -701q-8 -49 -9 -75q0 -84 93 -84q86 0 192 71l123 789h313l-172 -1098h-274v90q-160 -111 -332 -110q-268 -1 -268 235zM477 1358l447 244l86 -207l-459 -199z" />
<glyph unicode="&#xfb;" horiz-adv-x="1161" d="M74 215q0 61 12 139l113 711l319 33l-110 -701q-8 -49 -9 -75q0 -84 93 -84q86 0 192 71l123 789h313l-172 -1098h-274v90q-160 -111 -332 -110q-268 -1 -268 235zM371 1325l270 256h227l179 -270l-142 -115l-178 197l-250 -197z" />
<glyph unicode="&#xfc;" horiz-adv-x="1161" d="M74 215q0 61 12 139l113 711l319 33l-110 -701q-8 -49 -9 -75q0 -84 93 -84q86 0 192 71l123 789h313l-172 -1098h-274v90q-160 -111 -332 -110q-268 -1 -268 235zM340 1360q0 70 48 119t128 49q66 0 99.5 -34t33.5 -93q0 -74 -48 -126t-128 -52q-63 0 -98 38t-35 99z M770 1360q0 70 48 119t128 49q66 0 99.5 -34t33.5 -93q0 -74 -48 -126t-128 -52q-63 0 -98 38t-35 99z" />
<glyph unicode="&#xfd;" horiz-adv-x="1087" d="M-307 -391l45 270q139 -80 252 -80q111 0 217 125q33 39 67 103l-200 1038l309 33l125 -791q141 225 203 391q33 98 32 166q0 111 -43 180l281 76q74 -94 74 -227q0 -131 -88 -313q-102 -219 -353 -582q-74 -109 -132 -180.5t-136 -142t-166 -105.5t-188 -35 q-176 0 -299 74zM395 1358l447 244l86 -207l-459 -199z" />
<glyph unicode="&#xfe;" horiz-adv-x="1144" d="M-37 -428l297 1898h303l-71 -462q145 109 294 108q295 0 295 -383q0 -129 -29.5 -256t-89 -241.5t-165 -185t-240.5 -70.5q-133 0 -211 59l-74 -467h-309zM383 248q47 -27 113 -27q92 0 156.5 80t89 179.5t24.5 197.5q0 188 -127 188q-82 0 -166 -53z" />
<glyph unicode="&#xff;" horiz-adv-x="1085" d="M-309 -391l45 270q139 -80 252 -80q111 0 217 125q33 39 67 103l-200 1038l309 33l125 -791q141 225 203 391q33 98 32 166q0 111 -43 180l281 76q74 -94 74 -227q0 -131 -88 -313q-102 -219 -353 -582q-74 -109 -132 -180.5t-136 -142t-166 -105.5t-188 -35 q-176 0 -299 74zM244 1360q0 70 48 119t128 49q66 0 99.5 -34t33.5 -93q0 -74 -48 -126t-128 -52q-63 0 -98 38t-35 99zM674 1360q0 70 48 119t128 49q66 0 99.5 -34t33.5 -93q0 -74 -48 -126t-128 -52q-63 0 -98 38t-35 99z" />
<glyph unicode="&#x152;" horiz-adv-x="1888" d="M94 543q0 143 25.5 276t83 258t141.5 217t210 147.5t277 55.5q111 0 185 -22h930l-41 -246h-645q41 -104 40 -252q0 -51 -6 -103h478l-39 -245h-469q-39 -217 -162 -381h672l-39 -248h-965q-84 -23 -192 -23q-219 0 -351.5 143.5t-132.5 422.5zM428 541q0 -162 44 -240 t149 -78q158 0 261 206t103 529q0 289 -192 289q-104 0 -181 -73.5t-114 -191.5t-53.5 -227.5t-16.5 -213.5z" />
<glyph unicode="&#x153;" horiz-adv-x="1654" d="M59 428q0 131 34 251t101.5 219t180 158.5t258.5 59.5q207 0 305 -158q152 158 371 158q147 0 232 -79t85 -203q0 -96 -46 -172t-125 -120t-172 -66.5t-196 -22.5q-39 0 -57 2q0 -115 55.5 -167t167.5 -52q117 0 273 77l-39 -266q-139 -70 -322 -70q-117 0 -206 48.5 t-138 121.5q-145 -174 -368 -174q-207 0 -300.5 125t-93.5 330zM377 418q0 -201 129 -201q63 0 109.5 49t70 127t34.5 151.5t11 143.5q0 186 -125 186q-63 0 -111.5 -47t-72 -120.5t-34.5 -146t-11 -142.5zM1042 655q12 -2 39 -2q106 0 191.5 40t85.5 118q0 88 -92 88 q-82 0 -148 -74t-76 -170z" />
<glyph unicode="&#x178;" horiz-adv-x="1261" d="M127 1473h338l194 -633h11l385 633h346l-613 -938l-83 -535h-320l88 559zM444 1735q0 70 48.5 119t128.5 49q63 0 98 -34t35 -93q0 -74 -48.5 -126.5t-127.5 -52.5q-63 0 -98.5 38.5t-35.5 99.5zM874 1735q0 70 48.5 119t128.5 49q63 0 98 -34t35 -93q0 -74 -48.5 -126.5 t-127.5 -52.5q-63 0 -98.5 38.5t-35.5 99.5z" />
<glyph unicode="&#x2c6;" horiz-adv-x="1024" d="M174 1325l270 256h228l178 -270l-141 -115l-179 197l-249 -197z" />
<glyph unicode="&#x2dc;" horiz-adv-x="1024" d="M205 1245l6 199q37 27 96.5 49.5t106.5 22.5q45 0 126 -29t128 -29q82 0 149 41l-20 -209q-68 -35 -150 -35q-49 0 -136 24t-120 24q-96 -1 -186 -58z" />
<glyph unicode="&#x2000;" horiz-adv-x="962" />
<glyph unicode="&#x2001;" horiz-adv-x="1925" />
<glyph unicode="&#x2002;" horiz-adv-x="962" />
<glyph unicode="&#x2003;" horiz-adv-x="1925" />
<glyph unicode="&#x2004;" horiz-adv-x="641" />
<glyph unicode="&#x2005;" horiz-adv-x="481" />
<glyph unicode="&#x2006;" horiz-adv-x="319" />
<glyph unicode="&#x2007;" horiz-adv-x="319" />
<glyph unicode="&#x2008;" horiz-adv-x="239" />
<glyph unicode="&#x2009;" horiz-adv-x="385" />
<glyph unicode="&#x200a;" horiz-adv-x="106" />
<glyph unicode="&#x2010;" horiz-adv-x="833" d="M106 504l37 237h617l-37 -237h-617z" />
<glyph unicode="&#x2011;" horiz-adv-x="833" d="M106 504l37 237h617l-37 -237h-617z" />
<glyph unicode="&#x2012;" horiz-adv-x="833" d="M106 504l37 237h617l-37 -237h-617z" />
<glyph unicode="&#x2013;" horiz-adv-x="1024" d="M-14 457l37 235h1024l-37 -235h-1024z" />
<glyph unicode="&#x2014;" horiz-adv-x="2048" d="M-14 457l37 235h2048l-37 -235h-2048z" />
<glyph unicode="&#x2018;" horiz-adv-x="483" d="M193.5 1051.5q-29.5 58.5 1.5 128.5l167 413l154 -12l-59 -432q-23 -156 -158 -156q-76 0 -105.5 58.5z" />
<glyph unicode="&#x2019;" horiz-adv-x="479" d="M188 1006l60 432q23 156 158 155q76 0 105.5 -57t-1.5 -129l-168 -414z" />
<glyph unicode="&#x201a;" horiz-adv-x="489" d="M-4 -301l55 428q20 156 158 156q57 0 90 -31t33 -82q0 -31 -17 -74l-168 -415z" />
<glyph unicode="&#x201c;" horiz-adv-x="868" d="M189.5 1051.5q-29.5 58.5 0.5 128.5l168 413l154 -12l-59 -432q-23 -156 -158 -156q-76 0 -105.5 58.5zM574.5 1051.5q-29.5 58.5 0.5 128.5l168 413l154 -12l-59 -432q-23 -156 -158 -156q-76 0 -105.5 58.5z" />
<glyph unicode="&#x201d;" horiz-adv-x="866" d="M190 1006l60 432q23 156 158 155q76 0 105.5 -57t-1.5 -129l-168 -414zM575 1006l60 432q23 156 158 155q76 0 105.5 -57t-1.5 -129l-168 -414z" />
<glyph unicode="&#x201e;" horiz-adv-x="901" d="M8 -301l55 428q20 156 158 156q57 0 90 -31t33 -82q0 -31 -16 -74l-168 -415zM420 -301l55 428q20 156 158 156q57 0 90 -31t33 -82q0 -31 -17 -74l-168 -415z" />
<glyph unicode="&#x2022;" horiz-adv-x="899" d="M190 694q0 137 85 226.5t221 89.5q115 0 178 -65.5t63 -178.5q0 -129 -85 -221t-220 -92q-119 0 -180.5 63t-61.5 178z" />
<glyph unicode="&#x2026;" horiz-adv-x="1722" d="M57 127q0 86 54.5 143.5t140.5 57.5q70 0 108.5 -40t38.5 -108q0 -86 -54 -143t-140 -57q-72 0 -110 38.5t-38 108.5zM649 127q0 86 54.5 143.5t140.5 57.5q70 0 108.5 -40t38.5 -108q0 -86 -54 -143t-140 -57q-72 0 -110 38.5t-38 108.5zM1217 127q0 86 54 143.5 t140 57.5q70 0 109 -40t39 -108q0 -86 -54.5 -143t-140.5 -57q-72 0 -109.5 38.5t-37.5 108.5z" />
<glyph unicode="&#x202f;" horiz-adv-x="385" />
<glyph unicode="&#x2039;" horiz-adv-x="686" d="M41 582l498 454l153 -184l-313 -279l227 -286l-198 -164z" />
<glyph unicode="&#x203a;" horiz-adv-x="694" d="M-20 297l335 307l-221 270l193 168l362 -460l-510 -459z" />
<glyph unicode="&#x205f;" horiz-adv-x="481" />
<glyph unicode="&#x20ac;" horiz-adv-x="1198" d="M82 569l12 90l27 179h143q109 592 586 592q82 0 148.5 -26t107.5 -63.5t70.5 -88t43 -95.5t19.5 -90l-270 -68q-12 168 -148 168q-90 0 -155.5 -81.5t-94.5 -247.5h357l-39 -269h-354q-8 -66 -9 -114q0 -233 162 -234q125 0 236 154l194 -146q-186 -250 -467 -249 q-221 0 -324.5 130t-103.5 351q0 53 6 108h-147z" />
<glyph unicode="&#x2122;" horiz-adv-x="1697" d="M113 1303v170h688v-170h-246v-664h-203v664h-239zM864 639l60 834h221l166 -551h12l166 551h209l51 -834h-186l-23 485h-12l-133 -411h-164l-133 413h-13l-26 -487h-195z" />
<glyph unicode="&#xe000;" horiz-adv-x="1100" d="M0 1100h1100v-1100h-1100v1100z" />
<glyph unicode="&#xfb01;" horiz-adv-x="1214" d="M-266 -418l51 250q80 -35 158 -35q111 0 133 142l151 940h-155l34 219h154q63 399 492 399q76 0 174 -15.5t145 -31.5l-53 -219q-111 37 -242 37q-96 0 -144 -36t-63 -134h605l-175 -1098h-309l137 879h-292l-150 -940q-33 -201 -125 -302.5t-299 -101.5q-125 0 -227 47z " />
<glyph unicode="&#xfb02;" horiz-adv-x="1374" d="M-266 -418l51 250q80 -35 158 -35q57 0 91 40t48 132l145 910h-155l34 219h154q41 203 166 301t381 98q217 0 430 -78l-158 -1013q-8 -53 -8 -82q0 -88 76 -88q84 0 162 34l-37 -245q-119 -47 -256 -48q-147 0 -211 59.5t-64 174.5q0 51 9 98l149 944q-92 16 -125 17 q-96 0 -143 -37t-62 -135h193l-35 -219h-192l-144 -912q-16 -104 -42.5 -178t-75 -134.5t-126 -90t-186.5 -29.5q-133 0 -227 47z" />
<glyph unicode="&#xfb03;" horiz-adv-x="1826" d="M-266 -418l53 250q76 -35 156 -35q113 0 135 146l149 936h-153l32 219h156q66 401 461 401q86 0 176 -22l-57 -220q-66 16 -115 17q-72 0 -106.5 -38t-49.5 -138h303q61 399 492 399q74 0 172 -14.5t148 -32.5l-56 -219q-106 37 -239 37q-96 0 -144.5 -36t-64.5 -134h604 l-172 -1098h-311l139 879h-293l-150 -938q-33 -205 -116.5 -305.5t-282.5 -100.5q-111 0 -203 41l62 242q59 -27 110 -27q53 0 80 35t39 106l152 947h-303l-150 -932q-16 -100 -43 -171t-74 -128.5t-123.5 -85t-185.5 -27.5q-125 0 -227 47z" />
<glyph unicode="&#xfb04;" horiz-adv-x="1990" d="M-266 -418l53 250q76 -35 156 -35q113 0 135 146l149 936h-153l32 219h156q66 401 461 401q86 0 176 -22l-57 -220q-66 16 -115 17q-72 0 -106.5 -38t-49.5 -138h303q41 203 166 301t381 98q217 0 430 -78l-161 -1032q-8 -41 -9 -68q0 -82 72 -81q92 0 170 34l-37 -247 q-109 -45 -258 -45q-147 0 -209.5 59t-62.5 172q0 51 8 100l149 942q-92 16 -124 17q-96 0 -144.5 -37t-62.5 -135h194l-35 -219h-192l-150 -940q-33 -203 -117.5 -303.5t-281.5 -100.5q-111 0 -203 41l62 242q59 -27 110 -27q53 0 80 35t39 106l152 947h-303l-150 -938 q-33 -201 -126 -303.5t-300 -102.5q-133 0 -227 47z" />
</font>
</defs>
</svg>
